<?xml version="1.0" encoding="utf-8"?>
<!-- Generator: Adobe Illustrator 15.0.0, SVG Export Plug-In . SVG Version: 6.00 Build 0)  -->
<!DOCTYPE svg PUBLIC "-//W3C//DTD SVG 1.1//EN" "http://www.w3.org/Graphics/SVG/1.1/DTD/svg11.dtd">
<svg version="1.1" id="Layer_1" xmlns="http://www.w3.org/2000/svg" xmlns:xlink="http://www.w3.org/1999/xlink" x="0px" y="0px"
	 width="205px" height="205px" viewBox="0 0 205 205" enable-background="new 0 0 205 205" xml:space="preserve">
<circle fill="#4189A7" cx="101.912" cy="102.5" r="100"/>
<radialGradient id="SVGID_1_" cx="101.9131" cy="102.5" r="90" gradientUnits="userSpaceOnUse">
	<stop  offset="0" style="stop-color:#085B83"/>
	<stop  offset="0.4015" style="stop-color:#085980"/>
	<stop  offset="0.643" style="stop-color:#0A5378"/>
	<stop  offset="0.8414" style="stop-color:#0C496A"/>
	<stop  offset="1" style="stop-color:#0F3C58"/>
</radialGradient>
<path fill="url(#SVGID_1_)" d="M101.913,12.5c-49.706,0-90,40.294-90,90c0,49.706,40.294,90,90,90s90-40.295,90-90
	C191.913,52.793,151.619,12.5,101.913,12.5z M101.913,157.053c-30.129,0-54.554-24.424-54.554-54.553
	c0-30.13,24.425-54.554,54.554-54.554c30.128,0,54.553,24.424,54.553,54.554C156.466,132.629,132.041,157.053,101.913,157.053z"/>
<circle fill="#4189A7" cx="101.296" cy="101.117" r="53.764"/>
<circle fill="#FFFFFF" cx="101.296" cy="101.117" r="47.837"/>
<g opacity="0.3">
	<g>
		<polygon fill="#FFFFFF" points="101.416,101.412 101.416,187.324 110.959,119.279 101.416,101.417 		"/>
		<path fill="#4189A7" d="M101.058,101.412v85.913l0.708,0.051l9.561-68.158l-9.598-17.964L101.058,101.412z M101.77,102.834
			c1.148,2.15,8.723,16.326,8.822,16.511c-0.029,0.209-7.609,54.271-8.822,62.895C101.77,173.396,101.77,105.418,101.77,102.834z"/>
		<polygon fill="#4189A7" points="91.872,119.279 101.416,187.324 101.416,101.412 101.416,101.417 		"/>
		<path fill="#4189A7" d="M91.557,119.115l-0.053,0.102l9.559,68.158l0.708-0.051v-85.913l-0.67-0.159L91.557,119.115z
			 M101.058,102.834c0,2.583,0,70.562,0,79.406c-1.209-8.623-8.79-62.686-8.819-62.895
			C92.339,119.16,99.913,104.984,101.058,102.834z"/>
	</g>
	<g>
		<polygon fill="#FFFFFF" points="101.416,100.821 101.416,14.909 91.872,82.953 101.416,100.814 		"/>
		<path fill="#4189A7" d="M101.773,100.821V14.909l-0.709-0.05l-9.56,68.157l9.601,17.966L101.773,100.821z M101.062,99.399
			c-1.149-2.151-8.722-16.326-8.823-16.513c0.029-0.208,7.612-54.272,8.823-62.892C101.062,28.837,101.062,96.815,101.062,99.399z"
			/>
		<polygon fill="#4189A7" points="110.959,82.953 101.416,14.909 101.416,100.821 101.416,100.814 		"/>
		<path fill="#4189A7" d="M111.271,83.118l0.055-0.102l-9.561-68.157l-0.704,0.05v85.912l0.668,0.161L111.271,83.118z
			 M101.773,99.399c0-2.584,0-70.562,0-79.404c1.209,8.619,8.792,62.684,8.819,62.892C110.492,83.073,102.92,97.249,101.773,99.399z
			"/>
	</g>
	<g>
		<polygon fill="#FFFFFF" points="100.856,101.419 186.768,101.419 118.723,91.875 100.86,101.419 		"/>
		<path fill="#4189A7" d="M100.856,101.777l85.912-0.001l0.049-0.708l-68.158-9.559l-17.964,9.599L100.856,101.777z
			 M102.278,101.065c2.15-1.146,16.326-8.721,16.509-8.822c0.207,0.03,54.273,7.611,62.895,8.822
			C172.838,101.065,104.861,101.065,102.278,101.065z"/>
		<polygon fill="#4189A7" points="118.723,110.963 186.768,101.419 100.856,101.419 100.86,101.419 		"/>
		<path fill="#4189A7" d="M118.557,111.277l0.102,0.053l68.158-9.56l-0.049-0.705h-85.912l-0.162,0.67L118.557,111.277z
			 M102.278,101.777c2.583,0,70.56-0.001,79.404-0.001c-8.621,1.209-62.688,8.792-62.895,8.822
			C118.604,110.496,104.426,102.921,102.278,101.777z"/>
	</g>
	<g>
		<polygon fill="#FFFFFF" points="101.734,101.419 15.825,101.419 83.87,110.961 101.73,101.419 		"/>
		<path fill="#4189A7" d="M101.734,101.061l-85.91,0.002l-0.049,0.707l68.155,9.56l17.966-9.599L101.734,101.061z M100.313,101.774
			c-2.149,1.147-16.325,8.722-16.51,8.822c-0.207-0.031-54.272-7.613-62.894-8.822C29.752,101.774,97.728,101.774,100.313,101.774z"
			/>
		<polygon fill="#4189A7" points="83.87,91.875 15.825,101.419 101.734,101.419 101.73,101.419 		"/>
		<path fill="#4189A7" d="M84.035,91.562l-0.104-0.055l-68.155,9.561l0.049,0.706h85.91l0.163-0.67L84.035,91.562z M100.313,101.061
			c-2.585,0-70.561,0.002-79.403,0.002c8.621-1.211,62.687-8.794,62.894-8.821C83.988,92.34,98.166,99.916,100.313,101.061z"/>
	</g>
</g>
</svg>
